<svg xmlns="http://www.w3.org/2000/svg" viewBox="0 0 200 200"><path fill="#FFB6C1" d="M43.2,-74.6C56.7,-67.2,68.7,-56.7,75.2,-43.5C81.7,-30.3,82.7,-14.2,80.2,-0.2C77.7,13.8,71.7,27.6,63.2,39.2C54.7,50.8,43.7,60.2,31.2,67.2C18.7,74.2,4.8,78.8,-8.7,81.1C-22.2,83.4,-35.3,83.4,-47.2,77.2C-59.1,71,-69.8,58.6,-76.2,44.2C-82.6,29.8,-84.7,13.4,-82.2,-2.2C-79.7,-17.8,-72.7,-32.6,-62.2,-43.7C-51.7,-54.8,-37.7,-62.2,-23.1,-68.2C-8.5,-74.2,6.7,-78.8,21.7,-78.2C36.7,-77.6,51.7,-71.9,43.2,-74.6Z" transform="translate(100 100)"/></svg>